# xmcd
#
# Track frame offsets: 
#        150
#        13102
#        26227
#        37107
#        50607
#        61057
#        72737
#        87300
#        98262
#        111125
#        121472
#        132772
#        144810
#        152870
#        162450
#
# Disc length: 2284 seconds
#
# Revision: 2
# Processed by: cddbd v1.5.2PL0 Copyright (c) Steve Scherf et al.
# Submitted via: ExactAudioCopy v0.99pb4
#
DISCID=cd08ea0f
DTITLE=J.B. Lenoir - Martin Scorsese Presents the Blues:  J.B. Lenoir
DYEAR=2003
DGENRE=Blues
TTITLE0=Eisenhower Blues
TTITLE1=Korea Blues
TTITLE2=Mama Talk to Your Daughter
TTITLE3=Sitting Down Thinking
TTITLE4=Give Me One More Shot
TTITLE5=Natural Man
TTITLE6=Don't Dog Your Woman
TTITLE7=Low Down Dirty Shame
TTITLE8=If You Love Me
TTITLE9=Don't Touch My Head
TTITLE10=Mama, What about Your Daughter
TTITLE11=When I am Drinking
TTITLE12=Five Years
TTITLE13=Good Looking Woman
TTITLE14=Voodoo Boogie
EXTD=YEAR: 2003
EXTT0=
EXTT1=
EXTT2=
EXTT3=
EXTT4=
EXTT5=
EXTT6=
EXTT7=
EXTT8=
EXTT9=
EXTT10=
EXTT11=
EXTT12=
EXTT13=
EXTT14=
PLAYORDER=
